<mxfile host="app.diagrams.net" modified="2021-09-06T12:00:29.583Z" agent="5.0 (Macintosh; Intel Mac OS X 10_15_7) AppleWebKit/537.36 (KHTML, like Gecko) Chrome/92.0.4515.159 Safari/537.36" etag="xV0j0uUEvzUh7cpORz6C" version="15.0.4" type="github">
  <diagram id="AIX3p-sAqaVESIFTII6M" name="第 1 页">
    <mxGraphModel dx="1580" dy="1000" grid="1" gridSize="10" guides="1" tooltips="1" connect="1" arrows="1" fold="1" page="1" pageScale="1" pageWidth="2339" pageHeight="3300" math="0" shadow="0">
      <root>
        <mxCell id="0" />
        <mxCell id="1" parent="0" />
        <mxCell id="cyqQac6DRZA5pEgaZw5--3" value="" style="rounded=1;whiteSpace=wrap;html=1;fillColor=#f9f7ed;strokeColor=#36393d;" parent="1" vertex="1">
          <mxGeometry x="300" y="1150" width="1420" height="830" as="geometry" />
        </mxCell>
        <mxCell id="cyqQac6DRZA5pEgaZw5--2" value="" style="rounded=0;whiteSpace=wrap;html=1;dashed=1;strokeWidth=3;strokeColor=#d79b00;fillColor=none;" parent="1" vertex="1">
          <mxGeometry x="1590" y="457.5" width="410" height="65" as="geometry" />
        </mxCell>
        <mxCell id="fvGuiGc2wL7ZiQ-JMnJC-1" value="" style="rounded=1;whiteSpace=wrap;html=1;fillColor=#f9f7ed;strokeColor=#36393d;" parent="1" vertex="1">
          <mxGeometry x="300" y="200" width="1420" height="830" as="geometry" />
        </mxCell>
        <mxCell id="fvGuiGc2wL7ZiQ-JMnJC-19" style="edgeStyle=orthogonalEdgeStyle;curved=1;orthogonalLoop=1;jettySize=auto;html=1;entryX=0;entryY=0.5;entryDx=0;entryDy=0;" parent="1" source="fvGuiGc2wL7ZiQ-JMnJC-2" target="fvGuiGc2wL7ZiQ-JMnJC-13" edge="1">
          <mxGeometry relative="1" as="geometry" />
        </mxCell>
        <mxCell id="fvGuiGc2wL7ZiQ-JMnJC-2" value="listener 8080" style="rounded=1;whiteSpace=wrap;html=1;gradientColor=#7ea6e0;fillColor=#dae8fc;strokeColor=#6c8ebf;" parent="1" vertex="1">
          <mxGeometry x="180" y="270" width="240" height="40" as="geometry" />
        </mxCell>
        <mxCell id="fvGuiGc2wL7ZiQ-JMnJC-4" value="listener 15090" style="rounded=1;whiteSpace=wrap;html=1;gradientColor=#7ea6e0;fillColor=#dae8fc;strokeColor=#6c8ebf;" parent="1" vertex="1">
          <mxGeometry x="180" y="650" width="240" height="40" as="geometry" />
        </mxCell>
        <mxCell id="fvGuiGc2wL7ZiQ-JMnJC-5" value="listener 15021" style="rounded=1;whiteSpace=wrap;html=1;gradientColor=#7ea6e0;fillColor=#dae8fc;strokeColor=#6c8ebf;" parent="1" vertex="1">
          <mxGeometry x="180" y="720" width="240" height="40" as="geometry" />
        </mxCell>
        <mxCell id="fvGuiGc2wL7ZiQ-JMnJC-18" style="edgeStyle=orthogonalEdgeStyle;curved=1;orthogonalLoop=1;jettySize=auto;html=1;entryX=0;entryY=0.5;entryDx=0;entryDy=0;" parent="1" source="fvGuiGc2wL7ZiQ-JMnJC-13" target="fvGuiGc2wL7ZiQ-JMnJC-14" edge="1">
          <mxGeometry relative="1" as="geometry" />
        </mxCell>
        <mxCell id="fvGuiGc2wL7ZiQ-JMnJC-13" value="&lt;font style=&quot;font-size: 20px&quot;&gt;http_connect_manager filter&lt;/font&gt;" style="rounded=1;whiteSpace=wrap;html=1;gradientColor=#7ea6e0;fillColor=#dae8fc;strokeColor=#6c8ebf;" parent="1" vertex="1">
          <mxGeometry x="610" y="240" width="270" height="300" as="geometry" />
        </mxCell>
        <mxCell id="fvGuiGc2wL7ZiQ-JMnJC-14" value="" style="rounded=1;whiteSpace=wrap;html=1;gradientColor=#97d077;fillColor=#d5e8d4;strokeColor=#82b366;" parent="1" vertex="1">
          <mxGeometry x="1080" y="240" width="310" height="320" as="geometry" />
        </mxCell>
        <mxCell id="fvGuiGc2wL7ZiQ-JMnJC-15" value="&lt;div style=&quot;font-family: &amp;#34;menlo&amp;#34; , &amp;#34;monaco&amp;#34; , &amp;#34;courier new&amp;#34; , monospace ; line-height: 18px&quot;&gt;&lt;span&gt;&lt;font style=&quot;font-size: 25px&quot;&gt;http.80&lt;/font&gt;&lt;/span&gt;&lt;/div&gt;" style="text;html=1;strokeColor=none;align=center;verticalAlign=middle;whiteSpace=wrap;rounded=0;" parent="1" vertex="1">
          <mxGeometry x="1020" y="260" width="410" height="20" as="geometry" />
        </mxCell>
        <mxCell id="fvGuiGc2wL7ZiQ-JMnJC-22" value="" style="rounded=0;whiteSpace=wrap;html=1;dashed=1;strokeWidth=3;strokeColor=#6c8ebf;fillColor=none;" parent="1" vertex="1">
          <mxGeometry x="2140" y="1850" width="80" height="30" as="geometry" />
        </mxCell>
        <mxCell id="fvGuiGc2wL7ZiQ-JMnJC-24" value="" style="rounded=0;whiteSpace=wrap;html=1;dashed=1;strokeWidth=3;strokeColor=#82b366;fillColor=none;" parent="1" vertex="1">
          <mxGeometry x="2140" y="1930" width="80" height="30" as="geometry" />
        </mxCell>
        <mxCell id="fvGuiGc2wL7ZiQ-JMnJC-25" value="" style="rounded=0;whiteSpace=wrap;html=1;dashed=1;strokeWidth=3;strokeColor=#d79b00;fillColor=none;" parent="1" vertex="1">
          <mxGeometry x="2140" y="2010" width="80" height="30" as="geometry" />
        </mxCell>
        <mxCell id="fvGuiGc2wL7ZiQ-JMnJC-27" value="&lt;font style=&quot;font-size: 23px&quot;&gt;LDS&lt;/font&gt;" style="text;html=1;align=center;verticalAlign=middle;resizable=0;points=[];autosize=1;strokeColor=none;" parent="1" vertex="1">
          <mxGeometry x="2270" y="1855" width="60" height="20" as="geometry" />
        </mxCell>
        <mxCell id="fvGuiGc2wL7ZiQ-JMnJC-28" value="&lt;font style=&quot;font-size: 23px&quot;&gt;RDS&lt;/font&gt;" style="text;html=1;align=center;verticalAlign=middle;resizable=0;points=[];autosize=1;strokeColor=none;" parent="1" vertex="1">
          <mxGeometry x="2270" y="1935" width="60" height="20" as="geometry" />
        </mxCell>
        <mxCell id="fvGuiGc2wL7ZiQ-JMnJC-29" value="&lt;font style=&quot;font-size: 23px&quot;&gt;CDS&lt;/font&gt;" style="text;html=1;align=center;verticalAlign=middle;resizable=0;points=[];autosize=1;strokeColor=none;" parent="1" vertex="1">
          <mxGeometry x="2270" y="2015" width="60" height="20" as="geometry" />
        </mxCell>
        <mxCell id="fvGuiGc2wL7ZiQ-JMnJC-37" value="" style="rounded=0;whiteSpace=wrap;html=1;dashed=1;strokeWidth=3;strokeColor=#6c8ebf;fillColor=none;" parent="1" vertex="1">
          <mxGeometry x="140" y="640" width="310" height="60" as="geometry" />
        </mxCell>
        <mxCell id="fvGuiGc2wL7ZiQ-JMnJC-38" value="" style="rounded=0;whiteSpace=wrap;html=1;dashed=1;strokeWidth=3;strokeColor=#6c8ebf;fillColor=none;" parent="1" vertex="1">
          <mxGeometry x="140" y="710" width="310" height="60" as="geometry" />
        </mxCell>
        <mxCell id="fvGuiGc2wL7ZiQ-JMnJC-42" value="&lt;div style=&quot;font-family: &amp;#34;menlo&amp;#34; , &amp;#34;monaco&amp;#34; , &amp;#34;courier new&amp;#34; , monospace ; line-height: 18px&quot;&gt;&lt;div style=&quot;font-family: &amp;#34;menlo&amp;#34; , &amp;#34;monaco&amp;#34; , &amp;#34;courier new&amp;#34; , monospace ; line-height: 18px&quot;&gt;&lt;div style=&quot;font-family: &amp;#34;menlo&amp;#34; , &amp;#34;monaco&amp;#34; , &amp;#34;courier new&amp;#34; , monospace ; line-height: 18px&quot;&gt;&lt;span&gt;outbound|443||edition.cnn.com(DNS)&lt;/span&gt;&lt;/div&gt;&lt;/div&gt;&lt;/div&gt;" style="rounded=1;whiteSpace=wrap;html=1;gradientColor=#ffd966;fillColor=#fff2cc;strokeColor=#d6b656;" parent="1" vertex="1">
          <mxGeometry x="1620" y="342.5" width="350" height="40" as="geometry" />
        </mxCell>
        <mxCell id="cyqQac6DRZA5pEgaZw5--4" value="&lt;font style=&quot;font-size: 35px&quot;&gt;egress&lt;/font&gt;" style="text;html=1;align=center;verticalAlign=middle;resizable=0;points=[];autosize=1;strokeColor=none;" parent="1" vertex="1">
          <mxGeometry x="90" y="80" width="120" height="30" as="geometry" />
        </mxCell>
        <mxCell id="cyqQac6DRZA5pEgaZw5--5" value="&lt;font style=&quot;font-size: 35px&quot;&gt;sidecar&lt;/font&gt;" style="text;html=1;align=center;verticalAlign=middle;resizable=0;points=[];autosize=1;strokeColor=none;" parent="1" vertex="1">
          <mxGeometry x="85" y="1055" width="130" height="30" as="geometry" />
        </mxCell>
        <mxCell id="cyqQac6DRZA5pEgaZw5--6" value="&lt;div style=&quot;font-family: &amp;#34;menlo&amp;#34; , &amp;#34;monaco&amp;#34; , &amp;#34;courier new&amp;#34; , monospace ; line-height: 18px&quot;&gt;&lt;div style=&quot;font-family: &amp;#34;menlo&amp;#34; , &amp;#34;monaco&amp;#34; , &amp;#34;courier new&amp;#34; , monospace ; line-height: 18px&quot;&gt;&lt;div style=&quot;font-family: &amp;#34;menlo&amp;#34; , &amp;#34;monaco&amp;#34; , &amp;#34;courier new&amp;#34; , monospace ; line-height: 18px&quot;&gt;&lt;span&gt;outbound|443||edition.cnn.com(DNS)&lt;/span&gt;&lt;/div&gt;&lt;/div&gt;&lt;/div&gt;" style="rounded=1;whiteSpace=wrap;html=1;gradientColor=#ffd966;fillColor=#fff2cc;strokeColor=#d6b656;" parent="1" vertex="1">
          <mxGeometry x="1580" y="1292.5" width="350" height="40" as="geometry" />
        </mxCell>
        <mxCell id="cyqQac6DRZA5pEgaZw5--7" value="&lt;div style=&quot;font-family: &amp;#34;menlo&amp;#34; , &amp;#34;monaco&amp;#34; , &amp;#34;courier new&amp;#34; , monospace ; line-height: 18px&quot;&gt;&lt;div style=&quot;font-family: &amp;#34;menlo&amp;#34; , &amp;#34;monaco&amp;#34; , &amp;#34;courier new&amp;#34; , monospace ; line-height: 18px&quot;&gt;&lt;div style=&quot;font-family: &amp;#34;menlo&amp;#34; , &amp;#34;monaco&amp;#34; , &amp;#34;courier new&amp;#34; , monospace ; line-height: 18px&quot;&gt;&lt;span&gt;outbound|80||edition.cnn.com(DNS)&lt;/span&gt;&lt;/div&gt;&lt;/div&gt;&lt;/div&gt;" style="rounded=1;whiteSpace=wrap;html=1;gradientColor=#ffd966;fillColor=#fff2cc;strokeColor=#d6b656;" parent="1" vertex="1">
          <mxGeometry x="1580" y="1420" width="350" height="40" as="geometry" />
        </mxCell>
        <mxCell id="cyqQac6DRZA5pEgaZw5--25" style="edgeStyle=orthogonalEdgeStyle;curved=1;orthogonalLoop=1;jettySize=auto;html=1;entryX=0;entryY=0.422;entryDx=0;entryDy=0;entryPerimeter=0;" parent="1" source="cyqQac6DRZA5pEgaZw5--10" target="cyqQac6DRZA5pEgaZw5--15" edge="1">
          <mxGeometry relative="1" as="geometry" />
        </mxCell>
        <mxCell id="cyqQac6DRZA5pEgaZw5--10" value="listener 0.0.0.0_443" style="rounded=1;whiteSpace=wrap;html=1;gradientColor=#7ea6e0;fillColor=#dae8fc;strokeColor=#6c8ebf;" parent="1" vertex="1">
          <mxGeometry x="180" y="1560" width="240" height="40" as="geometry" />
        </mxCell>
        <mxCell id="cyqQac6DRZA5pEgaZw5--23" style="edgeStyle=orthogonalEdgeStyle;curved=1;orthogonalLoop=1;jettySize=auto;html=1;entryX=0;entryY=0.5;entryDx=0;entryDy=0;" parent="1" source="cyqQac6DRZA5pEgaZw5--12" target="cyqQac6DRZA5pEgaZw5--14" edge="1">
          <mxGeometry relative="1" as="geometry" />
        </mxCell>
        <mxCell id="cyqQac6DRZA5pEgaZw5--12" value="listener 0.0.0.0_80" style="rounded=1;whiteSpace=wrap;html=1;gradientColor=#7ea6e0;fillColor=#dae8fc;strokeColor=#6c8ebf;" parent="1" vertex="1">
          <mxGeometry x="180" y="1417.5" width="240" height="40" as="geometry" />
        </mxCell>
        <mxCell id="cyqQac6DRZA5pEgaZw5--14" value="" style="rounded=1;whiteSpace=wrap;html=1;gradientColor=#97d077;fillColor=#d5e8d4;strokeColor=#82b366;" parent="1" vertex="1">
          <mxGeometry x="960" y="1180" width="310" height="320" as="geometry" />
        </mxCell>
        <mxCell id="cyqQac6DRZA5pEgaZw5--26" style="edgeStyle=orthogonalEdgeStyle;curved=1;orthogonalLoop=1;jettySize=auto;html=1;entryX=0;entryY=0.5;entryDx=0;entryDy=0;" parent="1" source="cyqQac6DRZA5pEgaZw5--15" target="cyqQac6DRZA5pEgaZw5--6" edge="1">
          <mxGeometry relative="1" as="geometry">
            <Array as="points">
              <mxPoint x="1440" y="1775" />
              <mxPoint x="1440" y="1313" />
            </Array>
          </mxGeometry>
        </mxCell>
        <mxCell id="cyqQac6DRZA5pEgaZw5--15" value="&lt;font style=&quot;font-size: 33px&quot;&gt;filter hcm&lt;br&gt;domain&lt;br&gt;edition.cnn.com&lt;/font&gt;" style="rounded=1;whiteSpace=wrap;html=1;gradientColor=#7ea6e0;fillColor=#dae8fc;strokeColor=#6c8ebf;" parent="1" vertex="1">
          <mxGeometry x="560" y="1615" width="310" height="320" as="geometry" />
        </mxCell>
        <mxCell id="cyqQac6DRZA5pEgaZw5--16" value="&lt;div style=&quot;font-family: &amp;#34;menlo&amp;#34; , &amp;#34;monaco&amp;#34; , &amp;#34;courier new&amp;#34; , monospace ; line-height: 18px&quot;&gt;&lt;span&gt;&lt;font style=&quot;font-size: 22px&quot;&gt;http.80&lt;/font&gt;&lt;/span&gt;&lt;/div&gt;" style="text;html=1;strokeColor=none;align=center;verticalAlign=middle;whiteSpace=wrap;rounded=0;" parent="1" vertex="1">
          <mxGeometry x="900" y="1190" width="410" height="20" as="geometry" />
        </mxCell>
        <mxCell id="x3oq899CjaGRdJWbSlwY-2" style="edgeStyle=orthogonalEdgeStyle;curved=1;orthogonalLoop=1;jettySize=auto;html=1;entryX=0;entryY=0.5;entryDx=0;entryDy=0;" edge="1" parent="1" source="cyqQac6DRZA5pEgaZw5--17" target="rcYpAUuiluR1ljasDBnI-3">
          <mxGeometry relative="1" as="geometry" />
        </mxCell>
        <mxCell id="cyqQac6DRZA5pEgaZw5--17" value="&lt;font style=&quot;font-size: 25px&quot;&gt;domain&lt;br&gt;&lt;/font&gt;&lt;div style=&quot;font-family: &amp;#34;menlo&amp;#34; , &amp;#34;monaco&amp;#34; , &amp;#34;courier new&amp;#34; , monospace ; line-height: 18px ; font-size: 25px&quot;&gt;edition.cnn.com:80&lt;/div&gt;&lt;div style=&quot;font-family: &amp;#34;menlo&amp;#34; , &amp;#34;monaco&amp;#34; , &amp;#34;courier new&amp;#34; , monospace ; line-height: 18px ; font-size: 25px&quot;&gt;&lt;div style=&quot;line-height: 18px&quot;&gt;edition.cnn.com&lt;/div&gt;&lt;/div&gt;" style="rounded=1;whiteSpace=wrap;html=1;shadow=0;glass=0;sketch=1;strokeWidth=3;fillColor=#d5e8d4;gradientDirection=south;strokeColor=#82b366;gradientColor=#6F9958;" parent="1" vertex="1">
          <mxGeometry x="975" y="1230" width="280" height="110" as="geometry" />
        </mxCell>
        <mxCell id="cyqQac6DRZA5pEgaZw5--18" value="&lt;span style=&quot;font-size: 25px&quot;&gt;.........&lt;/span&gt;" style="rounded=1;whiteSpace=wrap;html=1;shadow=0;glass=0;sketch=1;strokeWidth=3;fillColor=#d5e8d4;gradientDirection=south;strokeColor=#82b366;gradientColor=#6F9958;" parent="1" vertex="1">
          <mxGeometry x="975" y="1352.5" width="280" height="110" as="geometry" />
        </mxCell>
        <mxCell id="fvGuiGc2wL7ZiQ-JMnJC-46" value="" style="rounded=0;whiteSpace=wrap;html=1;dashed=1;strokeWidth=3;strokeColor=#d79b00;fillColor=none;" parent="1" vertex="1">
          <mxGeometry x="1590" y="330" width="410" height="65" as="geometry" />
        </mxCell>
        <mxCell id="fvGuiGc2wL7ZiQ-JMnJC-31" value="" style="rounded=0;whiteSpace=wrap;html=1;dashed=1;strokeWidth=3;strokeColor=#6c8ebf;fillColor=none;" parent="1" vertex="1">
          <mxGeometry x="140" y="190" width="810" height="380" as="geometry" />
        </mxCell>
        <mxCell id="fvGuiGc2wL7ZiQ-JMnJC-32" value="" style="rounded=0;whiteSpace=wrap;html=1;dashed=1;strokeWidth=3;strokeColor=#82b366;fillColor=none;" parent="1" vertex="1">
          <mxGeometry x="1020" y="190" width="420" height="390" as="geometry" />
        </mxCell>
        <mxCell id="cyqQac6DRZA5pEgaZw5--13" value="" style="rounded=0;whiteSpace=wrap;html=1;dashed=1;strokeWidth=3;strokeColor=#6c8ebf;fillColor=none;" parent="1" vertex="1">
          <mxGeometry x="140" y="1550" width="740" height="430" as="geometry" />
        </mxCell>
        <mxCell id="cyqQac6DRZA5pEgaZw5--11" value="" style="rounded=0;whiteSpace=wrap;html=1;dashed=1;strokeWidth=3;strokeColor=#6c8ebf;fillColor=none;" parent="1" vertex="1">
          <mxGeometry x="140" y="1407.5" width="310" height="60" as="geometry" />
        </mxCell>
        <mxCell id="cyqQac6DRZA5pEgaZw5--9" value="" style="rounded=0;whiteSpace=wrap;html=1;dashed=1;strokeWidth=3;strokeColor=#d79b00;fillColor=none;" parent="1" vertex="1">
          <mxGeometry x="1550" y="1280" width="410" height="65" as="geometry" />
        </mxCell>
        <mxCell id="cyqQac6DRZA5pEgaZw5--1" value="&lt;div style=&quot;font-family: &amp;#34;menlo&amp;#34; , &amp;#34;monaco&amp;#34; , &amp;#34;courier new&amp;#34; , monospace ; line-height: 18px&quot;&gt;&lt;div style=&quot;font-family: &amp;#34;menlo&amp;#34; , &amp;#34;monaco&amp;#34; , &amp;#34;courier new&amp;#34; , monospace ; line-height: 18px&quot;&gt;&lt;div style=&quot;font-family: &amp;#34;menlo&amp;#34; , &amp;#34;monaco&amp;#34; , &amp;#34;courier new&amp;#34; , monospace ; line-height: 18px&quot;&gt;&lt;span&gt;outbound|80||edition.cnn.com(DNS)&lt;/span&gt;&lt;/div&gt;&lt;/div&gt;&lt;/div&gt;" style="rounded=1;whiteSpace=wrap;html=1;gradientColor=#ffd966;fillColor=#fff2cc;strokeColor=#d6b656;" parent="1" vertex="1">
          <mxGeometry x="1620" y="470" width="350" height="40" as="geometry" />
        </mxCell>
        <mxCell id="rcYpAUuiluR1ljasDBnI-1" value="&lt;div style=&quot;font-family: &amp;#34;menlo&amp;#34; , &amp;#34;monaco&amp;#34; , &amp;#34;courier new&amp;#34; , monospace ; line-height: 18px&quot;&gt;&lt;div style=&quot;font-family: &amp;#34;menlo&amp;#34; , &amp;#34;monaco&amp;#34; , &amp;#34;courier new&amp;#34; , monospace ; line-height: 18px&quot;&gt;&lt;div style=&quot;font-family: &amp;#34;menlo&amp;#34; , &amp;#34;monaco&amp;#34; , &amp;#34;courier new&amp;#34; , monospace ; line-height: 18px&quot;&gt;&lt;div style=&quot;font-family: &amp;#34;menlo&amp;#34; , &amp;#34;monaco&amp;#34; , &amp;#34;courier new&amp;#34; , monospace ; line-height: 18px&quot;&gt;&lt;span&gt;outbound|443|cnn|istio-egressgateway.istio-system.svc.cluster.local(EDS)&lt;/span&gt;&lt;/div&gt;&lt;/div&gt;&lt;/div&gt;&lt;/div&gt;" style="rounded=1;whiteSpace=wrap;html=1;gradientColor=#ffd966;fillColor=#fff2cc;strokeColor=#d6b656;" parent="1" vertex="1">
          <mxGeometry x="1570" y="1582.5" width="350" height="40" as="geometry" />
        </mxCell>
        <mxCell id="rcYpAUuiluR1ljasDBnI-3" value="&lt;div style=&quot;font-family: &amp;quot;menlo&amp;quot; , &amp;quot;monaco&amp;quot; , &amp;quot;courier new&amp;quot; , monospace ; line-height: 18px&quot;&gt;&lt;div style=&quot;font-family: &amp;quot;menlo&amp;quot; , &amp;quot;monaco&amp;quot; , &amp;quot;courier new&amp;quot; , monospace ; line-height: 18px&quot;&gt;&lt;div style=&quot;font-family: &amp;quot;menlo&amp;quot; , &amp;quot;monaco&amp;quot; , &amp;quot;courier new&amp;quot; , monospace ; line-height: 18px&quot;&gt;&lt;div style=&quot;font-family: &amp;quot;menlo&amp;quot; , &amp;quot;monaco&amp;quot; , &amp;quot;courier new&amp;quot; , monospace ; line-height: 18px&quot;&gt;&lt;span style=&quot;&quot;&gt;outbound|80|cnn|istio-egressgateway.istio-system.svc.cluster.local(EDS)&lt;/span&gt;&lt;/div&gt;&lt;/div&gt;&lt;/div&gt;&lt;/div&gt;" style="rounded=1;whiteSpace=wrap;html=1;gradientColor=#ffd966;fillColor=#fff2cc;strokeColor=#d6b656;" parent="1" vertex="1">
          <mxGeometry x="1570" y="1692.5" width="350" height="40" as="geometry" />
        </mxCell>
        <mxCell id="rcYpAUuiluR1ljasDBnI-2" value="" style="rounded=0;whiteSpace=wrap;html=1;dashed=1;strokeWidth=3;strokeColor=#d79b00;fillColor=none;" parent="1" vertex="1">
          <mxGeometry x="1540" y="1570" width="410" height="65" as="geometry" />
        </mxCell>
        <mxCell id="cyqQac6DRZA5pEgaZw5--22" value="" style="rounded=0;whiteSpace=wrap;html=1;dashed=1;strokeWidth=3;strokeColor=#82b366;fillColor=none;" parent="1" vertex="1">
          <mxGeometry x="905" y="1130" width="420" height="390" as="geometry" />
        </mxCell>
        <mxCell id="rcYpAUuiluR1ljasDBnI-4" value="" style="rounded=0;whiteSpace=wrap;html=1;dashed=1;strokeWidth=3;strokeColor=#d79b00;fillColor=none;" parent="1" vertex="1">
          <mxGeometry x="1540" y="1680" width="410" height="65" as="geometry" />
        </mxCell>
        <mxCell id="cyqQac6DRZA5pEgaZw5--8" value="" style="rounded=0;whiteSpace=wrap;html=1;dashed=1;strokeWidth=3;strokeColor=#d79b00;fillColor=none;" parent="1" vertex="1">
          <mxGeometry x="1550" y="1407.5" width="410" height="65" as="geometry" />
        </mxCell>
      </root>
    </mxGraphModel>
  </diagram>
</mxfile>
